<?xml version="1.0" encoding="utf-8" standalone="no"?>
<!DOCTYPE svg PUBLIC "-//W3C//DTD SVG 1.1//EN"
  "http://www.w3.org/Graphics/SVG/1.1/DTD/svg11.dtd">
<!-- Created with matplotlib (http://matplotlib.org/) -->
<svg height="207.754687pt" version="1.1" viewBox="0 0 988.313856 207.754687" width="988.313856pt" xmlns="http://www.w3.org/2000/svg" xmlns:xlink="http://www.w3.org/1999/xlink">
 <defs>
  <style type="text/css">
*{stroke-linecap:butt;stroke-linejoin:round;}
  </style>
 </defs>
 <g id="figure_1">
  <g id="patch_1">
   <path d="M 0 207.754687 
L 988.313856 207.754687 
L 988.313856 0 
L 0 0 
z
" style="fill:#ffffff;"/>
  </g>
  <g id="axes_1">
   <g id="patch_2">
    <path d="M 34.240625 170.198437 
L 204.147785 170.198437 
L 204.147785 20.798438 
L 34.240625 20.798438 
z
" style="fill:#ffffff;"/>
   </g>
   <g id="matplotlib.axis_1">
    <g id="xtick_1">
     <g id="line2d_1">
      <defs>
       <path d="M 0 0 
L 0 3.5 
" id="m801d7903ca" style="stroke:#000000;stroke-width:0.8;"/>
      </defs>
      <g>
       <use style="stroke:#000000;stroke-width:0.8;" x="41.963678" xlink:href="#m801d7903ca" y="170.198437"/>
      </g>
     </g>
     <g id="text_1">
      <!-- 0 -->
      <defs>
       <path d="M 31.78125 66.40625 
Q 24.171875 66.40625 20.328125 58.90625 
Q 16.5 51.421875 16.5 36.375 
Q 16.5 21.390625 20.328125 13.890625 
Q 24.171875 6.390625 31.78125 6.390625 
Q 39.453125 6.390625 43.28125 13.890625 
Q 47.125 21.390625 47.125 36.375 
Q 47.125 51.421875 43.28125 58.90625 
Q 39.453125 66.40625 31.78125 66.40625 
z
M 31.78125 74.21875 
Q 44.046875 74.21875 50.515625 64.515625 
Q 56.984375 54.828125 56.984375 36.375 
Q 56.984375 17.96875 50.515625 8.265625 
Q 44.046875 -1.421875 31.78125 -1.421875 
Q 19.53125 -1.421875 13.0625 8.265625 
Q 6.59375 17.96875 6.59375 36.375 
Q 6.59375 54.828125 13.0625 64.515625 
Q 19.53125 74.21875 31.78125 74.21875 
z
" id="DejaVuSans-30"/>
      </defs>
      <g transform="translate(38.782428 184.796875)scale(0.1 -0.1)">
       <use xlink:href="#DejaVuSans-30"/>
      </g>
     </g>
    </g>
    <g id="xtick_2">
     <g id="line2d_2">
      <g>
       <use style="stroke:#000000;stroke-width:0.8;" x="87.3934" xlink:href="#m801d7903ca" y="170.198437"/>
      </g>
     </g>
     <g id="text_2">
      <!-- 5 -->
      <defs>
       <path d="M 10.796875 72.90625 
L 49.515625 72.90625 
L 49.515625 64.59375 
L 19.828125 64.59375 
L 19.828125 46.734375 
Q 21.96875 47.46875 24.109375 47.828125 
Q 26.265625 48.1875 28.421875 48.1875 
Q 40.625 48.1875 47.75 41.5 
Q 54.890625 34.8125 54.890625 23.390625 
Q 54.890625 11.625 47.5625 5.09375 
Q 40.234375 -1.421875 26.90625 -1.421875 
Q 22.3125 -1.421875 17.546875 -0.640625 
Q 12.796875 0.140625 7.71875 1.703125 
L 7.71875 11.625 
Q 12.109375 9.234375 16.796875 8.0625 
Q 21.484375 6.890625 26.703125 6.890625 
Q 35.15625 6.890625 40.078125 11.328125 
Q 45.015625 15.765625 45.015625 23.390625 
Q 45.015625 31 40.078125 35.4375 
Q 35.15625 39.890625 26.703125 39.890625 
Q 22.75 39.890625 18.8125 39.015625 
Q 14.890625 38.140625 10.796875 36.28125 
z
" id="DejaVuSans-35"/>
      </defs>
      <g transform="translate(84.21215 184.796875)scale(0.1 -0.1)">
       <use xlink:href="#DejaVuSans-35"/>
      </g>
     </g>
    </g>
    <g id="xtick_3">
     <g id="line2d_3">
      <g>
       <use style="stroke:#000000;stroke-width:0.8;" x="132.823122" xlink:href="#m801d7903ca" y="170.198437"/>
      </g>
     </g>
     <g id="text_3">
      <!-- 10 -->
      <defs>
       <path d="M 12.40625 8.296875 
L 28.515625 8.296875 
L 28.515625 63.921875 
L 10.984375 60.40625 
L 10.984375 69.390625 
L 28.421875 72.90625 
L 38.28125 72.90625 
L 38.28125 8.296875 
L 54.390625 8.296875 
L 54.390625 0 
L 12.40625 0 
z
" id="DejaVuSans-31"/>
      </defs>
      <g transform="translate(126.460622 184.796875)scale(0.1 -0.1)">
       <use xlink:href="#DejaVuSans-31"/>
       <use x="63.623047" xlink:href="#DejaVuSans-30"/>
      </g>
     </g>
    </g>
    <g id="xtick_4">
     <g id="line2d_4">
      <g>
       <use style="stroke:#000000;stroke-width:0.8;" x="178.252843" xlink:href="#m801d7903ca" y="170.198437"/>
      </g>
     </g>
     <g id="text_4">
      <!-- 15 -->
      <g transform="translate(171.890343 184.796875)scale(0.1 -0.1)">
       <use xlink:href="#DejaVuSans-31"/>
       <use x="63.623047" xlink:href="#DejaVuSans-35"/>
      </g>
     </g>
    </g>
    <g id="text_5">
     <!-- epoch -->
     <defs>
      <path d="M 56.203125 29.59375 
L 56.203125 25.203125 
L 14.890625 25.203125 
Q 15.484375 15.921875 20.484375 11.0625 
Q 25.484375 6.203125 34.421875 6.203125 
Q 39.59375 6.203125 44.453125 7.46875 
Q 49.3125 8.734375 54.109375 11.28125 
L 54.109375 2.78125 
Q 49.265625 0.734375 44.1875 -0.34375 
Q 39.109375 -1.421875 33.890625 -1.421875 
Q 20.796875 -1.421875 13.15625 6.1875 
Q 5.515625 13.8125 5.515625 26.8125 
Q 5.515625 40.234375 12.765625 48.109375 
Q 20.015625 56 32.328125 56 
Q 43.359375 56 49.78125 48.890625 
Q 56.203125 41.796875 56.203125 29.59375 
z
M 47.21875 32.234375 
Q 47.125 39.59375 43.09375 43.984375 
Q 39.0625 48.390625 32.421875 48.390625 
Q 24.90625 48.390625 20.390625 44.140625 
Q 15.875 39.890625 15.1875 32.171875 
z
" id="DejaVuSans-65"/>
      <path d="M 18.109375 8.203125 
L 18.109375 -20.796875 
L 9.078125 -20.796875 
L 9.078125 54.6875 
L 18.109375 54.6875 
L 18.109375 46.390625 
Q 20.953125 51.265625 25.265625 53.625 
Q 29.59375 56 35.59375 56 
Q 45.5625 56 51.78125 48.09375 
Q 58.015625 40.1875 58.015625 27.296875 
Q 58.015625 14.40625 51.78125 6.484375 
Q 45.5625 -1.421875 35.59375 -1.421875 
Q 29.59375 -1.421875 25.265625 0.953125 
Q 20.953125 3.328125 18.109375 8.203125 
z
M 48.6875 27.296875 
Q 48.6875 37.203125 44.609375 42.84375 
Q 40.53125 48.484375 33.40625 48.484375 
Q 26.265625 48.484375 22.1875 42.84375 
Q 18.109375 37.203125 18.109375 27.296875 
Q 18.109375 17.390625 22.1875 11.75 
Q 26.265625 6.109375 33.40625 6.109375 
Q 40.53125 6.109375 44.609375 11.75 
Q 48.6875 17.390625 48.6875 27.296875 
z
" id="DejaVuSans-70"/>
      <path d="M 30.609375 48.390625 
Q 23.390625 48.390625 19.1875 42.75 
Q 14.984375 37.109375 14.984375 27.296875 
Q 14.984375 17.484375 19.15625 11.84375 
Q 23.34375 6.203125 30.609375 6.203125 
Q 37.796875 6.203125 41.984375 11.859375 
Q 46.1875 17.53125 46.1875 27.296875 
Q 46.1875 37.015625 41.984375 42.703125 
Q 37.796875 48.390625 30.609375 48.390625 
z
M 30.609375 56 
Q 42.328125 56 49.015625 48.375 
Q 55.71875 40.765625 55.71875 27.296875 
Q 55.71875 13.875 49.015625 6.21875 
Q 42.328125 -1.421875 30.609375 -1.421875 
Q 18.84375 -1.421875 12.171875 6.21875 
Q 5.515625 13.875 5.515625 27.296875 
Q 5.515625 40.765625 12.171875 48.375 
Q 18.84375 56 30.609375 56 
z
" id="DejaVuSans-6f"/>
      <path d="M 48.78125 52.59375 
L 48.78125 44.1875 
Q 44.96875 46.296875 41.140625 47.34375 
Q 37.3125 48.390625 33.40625 48.390625 
Q 24.65625 48.390625 19.8125 42.84375 
Q 14.984375 37.3125 14.984375 27.296875 
Q 14.984375 17.28125 19.8125 11.734375 
Q 24.65625 6.203125 33.40625 6.203125 
Q 37.3125 6.203125 41.140625 7.25 
Q 44.96875 8.296875 48.78125 10.40625 
L 48.78125 2.09375 
Q 45.015625 0.34375 40.984375 -0.53125 
Q 36.96875 -1.421875 32.421875 -1.421875 
Q 20.0625 -1.421875 12.78125 6.34375 
Q 5.515625 14.109375 5.515625 27.296875 
Q 5.515625 40.671875 12.859375 48.328125 
Q 20.21875 56 33.015625 56 
Q 37.15625 56 41.109375 55.140625 
Q 45.0625 54.296875 48.78125 52.59375 
z
" id="DejaVuSans-63"/>
      <path d="M 54.890625 33.015625 
L 54.890625 0 
L 45.90625 0 
L 45.90625 32.71875 
Q 45.90625 40.484375 42.875 44.328125 
Q 39.84375 48.1875 33.796875 48.1875 
Q 26.515625 48.1875 22.3125 43.546875 
Q 18.109375 38.921875 18.109375 30.90625 
L 18.109375 0 
L 9.078125 0 
L 9.078125 75.984375 
L 18.109375 75.984375 
L 18.109375 46.1875 
Q 21.34375 51.125 25.703125 53.5625 
Q 30.078125 56 35.796875 56 
Q 45.21875 56 50.046875 50.171875 
Q 54.890625 44.34375 54.890625 33.015625 
z
" id="DejaVuSans-68"/>
     </defs>
     <g transform="translate(103.96608 198.475)scale(0.1 -0.1)">
      <use xlink:href="#DejaVuSans-65"/>
      <use x="61.523438" xlink:href="#DejaVuSans-70"/>
      <use x="125" xlink:href="#DejaVuSans-6f"/>
      <use x="186.181641" xlink:href="#DejaVuSans-63"/>
      <use x="241.162109" xlink:href="#DejaVuSans-68"/>
     </g>
    </g>
   </g>
   <g id="matplotlib.axis_2">
    <g id="ytick_1">
     <g id="line2d_5">
      <defs>
       <path d="M 0 0 
L -3.5 0 
" id="mf908ce2f9e" style="stroke:#000000;stroke-width:0.8;"/>
      </defs>
      <g>
       <use style="stroke:#000000;stroke-width:0.8;" x="34.240625" xlink:href="#mf908ce2f9e" y="152.929389"/>
      </g>
     </g>
     <g id="text_6">
      <!-- 1 -->
      <g transform="translate(20.878125 156.728607)scale(0.1 -0.1)">
       <use xlink:href="#DejaVuSans-31"/>
      </g>
     </g>
    </g>
    <g id="ytick_2">
     <g id="line2d_6">
      <g>
       <use style="stroke:#000000;stroke-width:0.8;" x="34.240625" xlink:href="#mf908ce2f9e" y="131.319271"/>
      </g>
     </g>
     <g id="text_7">
      <!-- 2 -->
      <defs>
       <path d="M 19.1875 8.296875 
L 53.609375 8.296875 
L 53.609375 0 
L 7.328125 0 
L 7.328125 8.296875 
Q 12.9375 14.109375 22.625 23.890625 
Q 32.328125 33.6875 34.8125 36.53125 
Q 39.546875 41.84375 41.421875 45.53125 
Q 43.3125 49.21875 43.3125 52.78125 
Q 43.3125 58.59375 39.234375 62.25 
Q 35.15625 65.921875 28.609375 65.921875 
Q 23.96875 65.921875 18.8125 64.3125 
Q 13.671875 62.703125 7.8125 59.421875 
L 7.8125 69.390625 
Q 13.765625 71.78125 18.9375 73 
Q 24.125 74.21875 28.421875 74.21875 
Q 39.75 74.21875 46.484375 68.546875 
Q 53.21875 62.890625 53.21875 53.421875 
Q 53.21875 48.921875 51.53125 44.890625 
Q 49.859375 40.875 45.40625 35.40625 
Q 44.1875 33.984375 37.640625 27.21875 
Q 31.109375 20.453125 19.1875 8.296875 
z
" id="DejaVuSans-32"/>
      </defs>
      <g transform="translate(20.878125 135.11849)scale(0.1 -0.1)">
       <use xlink:href="#DejaVuSans-32"/>
      </g>
     </g>
    </g>
    <g id="ytick_3">
     <g id="line2d_7">
      <g>
       <use style="stroke:#000000;stroke-width:0.8;" x="34.240625" xlink:href="#mf908ce2f9e" y="109.709153"/>
      </g>
     </g>
     <g id="text_8">
      <!-- 3 -->
      <defs>
       <path d="M 40.578125 39.3125 
Q 47.65625 37.796875 51.625 33 
Q 55.609375 28.21875 55.609375 21.1875 
Q 55.609375 10.40625 48.1875 4.484375 
Q 40.765625 -1.421875 27.09375 -1.421875 
Q 22.515625 -1.421875 17.65625 -0.515625 
Q 12.796875 0.390625 7.625 2.203125 
L 7.625 11.71875 
Q 11.71875 9.328125 16.59375 8.109375 
Q 21.484375 6.890625 26.8125 6.890625 
Q 36.078125 6.890625 40.9375 10.546875 
Q 45.796875 14.203125 45.796875 21.1875 
Q 45.796875 27.640625 41.28125 31.265625 
Q 36.765625 34.90625 28.71875 34.90625 
L 20.21875 34.90625 
L 20.21875 43.015625 
L 29.109375 43.015625 
Q 36.375 43.015625 40.234375 45.921875 
Q 44.09375 48.828125 44.09375 54.296875 
Q 44.09375 59.90625 40.109375 62.90625 
Q 36.140625 65.921875 28.71875 65.921875 
Q 24.65625 65.921875 20.015625 65.03125 
Q 15.375 64.15625 9.8125 62.3125 
L 9.8125 71.09375 
Q 15.4375 72.65625 20.34375 73.4375 
Q 25.25 74.21875 29.59375 74.21875 
Q 40.828125 74.21875 47.359375 69.109375 
Q 53.90625 64.015625 53.90625 55.328125 
Q 53.90625 49.265625 50.4375 45.09375 
Q 46.96875 40.921875 40.578125 39.3125 
z
" id="DejaVuSans-33"/>
      </defs>
      <g transform="translate(20.878125 113.508372)scale(0.1 -0.1)">
       <use xlink:href="#DejaVuSans-33"/>
      </g>
     </g>
    </g>
    <g id="ytick_4">
     <g id="line2d_8">
      <g>
       <use style="stroke:#000000;stroke-width:0.8;" x="34.240625" xlink:href="#mf908ce2f9e" y="88.099035"/>
      </g>
     </g>
     <g id="text_9">
      <!-- 4 -->
      <defs>
       <path d="M 37.796875 64.3125 
L 12.890625 25.390625 
L 37.796875 25.390625 
z
M 35.203125 72.90625 
L 47.609375 72.90625 
L 47.609375 25.390625 
L 58.015625 25.390625 
L 58.015625 17.1875 
L 47.609375 17.1875 
L 47.609375 0 
L 37.796875 0 
L 37.796875 17.1875 
L 4.890625 17.1875 
L 4.890625 26.703125 
z
" id="DejaVuSans-34"/>
      </defs>
      <g transform="translate(20.878125 91.898254)scale(0.1 -0.1)">
       <use xlink:href="#DejaVuSans-34"/>
      </g>
     </g>
    </g>
    <g id="ytick_5">
     <g id="line2d_9">
      <g>
       <use style="stroke:#000000;stroke-width:0.8;" x="34.240625" xlink:href="#mf908ce2f9e" y="66.488917"/>
      </g>
     </g>
     <g id="text_10">
      <!-- 5 -->
      <g transform="translate(20.878125 70.288136)scale(0.1 -0.1)">
       <use xlink:href="#DejaVuSans-35"/>
      </g>
     </g>
    </g>
    <g id="ytick_6">
     <g id="line2d_10">
      <g>
       <use style="stroke:#000000;stroke-width:0.8;" x="34.240625" xlink:href="#mf908ce2f9e" y="44.878799"/>
      </g>
     </g>
     <g id="text_11">
      <!-- 6 -->
      <defs>
       <path d="M 33.015625 40.375 
Q 26.375 40.375 22.484375 35.828125 
Q 18.609375 31.296875 18.609375 23.390625 
Q 18.609375 15.53125 22.484375 10.953125 
Q 26.375 6.390625 33.015625 6.390625 
Q 39.65625 6.390625 43.53125 10.953125 
Q 47.40625 15.53125 47.40625 23.390625 
Q 47.40625 31.296875 43.53125 35.828125 
Q 39.65625 40.375 33.015625 40.375 
z
M 52.59375 71.296875 
L 52.59375 62.3125 
Q 48.875 64.0625 45.09375 64.984375 
Q 41.3125 65.921875 37.59375 65.921875 
Q 27.828125 65.921875 22.671875 59.328125 
Q 17.53125 52.734375 16.796875 39.40625 
Q 19.671875 43.65625 24.015625 45.921875 
Q 28.375 48.1875 33.59375 48.1875 
Q 44.578125 48.1875 50.953125 41.515625 
Q 57.328125 34.859375 57.328125 23.390625 
Q 57.328125 12.15625 50.6875 5.359375 
Q 44.046875 -1.421875 33.015625 -1.421875 
Q 20.359375 -1.421875 13.671875 8.265625 
Q 6.984375 17.96875 6.984375 36.375 
Q 6.984375 53.65625 15.1875 63.9375 
Q 23.390625 74.21875 37.203125 74.21875 
Q 40.921875 74.21875 44.703125 73.484375 
Q 48.484375 72.75 52.59375 71.296875 
z
" id="DejaVuSans-36"/>
      </defs>
      <g transform="translate(20.878125 48.678018)scale(0.1 -0.1)">
       <use xlink:href="#DejaVuSans-36"/>
      </g>
     </g>
    </g>
    <g id="ytick_7">
     <g id="line2d_11">
      <g>
       <use style="stroke:#000000;stroke-width:0.8;" x="34.240625" xlink:href="#mf908ce2f9e" y="23.268682"/>
      </g>
     </g>
     <g id="text_12">
      <!-- 7 -->
      <defs>
       <path d="M 8.203125 72.90625 
L 55.078125 72.90625 
L 55.078125 68.703125 
L 28.609375 0 
L 18.3125 0 
L 43.21875 64.59375 
L 8.203125 64.59375 
z
" id="DejaVuSans-37"/>
      </defs>
      <g transform="translate(20.878125 27.0679)scale(0.1 -0.1)">
       <use xlink:href="#DejaVuSans-37"/>
      </g>
     </g>
    </g>
    <g id="text_13">
     <!-- value -->
     <defs>
      <path d="M 2.984375 54.6875 
L 12.5 54.6875 
L 29.59375 8.796875 
L 46.6875 54.6875 
L 56.203125 54.6875 
L 35.6875 0 
L 23.484375 0 
z
" id="DejaVuSans-76"/>
      <path d="M 34.28125 27.484375 
Q 23.390625 27.484375 19.1875 25 
Q 14.984375 22.515625 14.984375 16.5 
Q 14.984375 11.71875 18.140625 8.90625 
Q 21.296875 6.109375 26.703125 6.109375 
Q 34.1875 6.109375 38.703125 11.40625 
Q 43.21875 16.703125 43.21875 25.484375 
L 43.21875 27.484375 
z
M 52.203125 31.203125 
L 52.203125 0 
L 43.21875 0 
L 43.21875 8.296875 
Q 40.140625 3.328125 35.546875 0.953125 
Q 30.953125 -1.421875 24.3125 -1.421875 
Q 15.921875 -1.421875 10.953125 3.296875 
Q 6 8.015625 6 15.921875 
Q 6 25.140625 12.171875 29.828125 
Q 18.359375 34.515625 30.609375 34.515625 
L 43.21875 34.515625 
L 43.21875 35.40625 
Q 43.21875 41.609375 39.140625 45 
Q 35.0625 48.390625 27.6875 48.390625 
Q 23 48.390625 18.546875 47.265625 
Q 14.109375 46.140625 10.015625 43.890625 
L 10.015625 52.203125 
Q 14.9375 54.109375 19.578125 55.046875 
Q 24.21875 56 28.609375 56 
Q 40.484375 56 46.34375 49.84375 
Q 52.203125 43.703125 52.203125 31.203125 
z
" id="DejaVuSans-61"/>
      <path d="M 9.421875 75.984375 
L 18.40625 75.984375 
L 18.40625 0 
L 9.421875 0 
z
" id="DejaVuSans-6c"/>
      <path d="M 8.5 21.578125 
L 8.5 54.6875 
L 17.484375 54.6875 
L 17.484375 21.921875 
Q 17.484375 14.15625 20.5 10.265625 
Q 23.53125 6.390625 29.59375 6.390625 
Q 36.859375 6.390625 41.078125 11.03125 
Q 45.3125 15.671875 45.3125 23.6875 
L 45.3125 54.6875 
L 54.296875 54.6875 
L 54.296875 0 
L 45.3125 0 
L 45.3125 8.40625 
Q 42.046875 3.421875 37.71875 1 
Q 33.40625 -1.421875 27.6875 -1.421875 
Q 18.265625 -1.421875 13.375 4.4375 
Q 8.5 10.296875 8.5 21.578125 
z
M 31.109375 56 
z
" id="DejaVuSans-75"/>
     </defs>
     <g transform="translate(14.798438 109.15625)rotate(-90)scale(0.1 -0.1)">
      <use xlink:href="#DejaVuSans-76"/>
      <use x="59.179688" xlink:href="#DejaVuSans-61"/>
      <use x="120.458984" xlink:href="#DejaVuSans-6c"/>
      <use x="148.242188" xlink:href="#DejaVuSans-75"/>
      <use x="211.621094" xlink:href="#DejaVuSans-65"/>
     </g>
    </g>
   </g>
   <g id="line2d_12">
    <path clip-path="url(#pe2c50c8111)" d="M 41.963678 159.996426 
L 51.049622 160.177671 
L 60.135566 160.349182 
L 69.221511 160.454848 
L 78.307455 160.507442 
L 87.3934 160.659286 
L 96.479344 160.842098 
L 105.565288 160.949258 
L 114.651233 161.11754 
L 123.737177 161.323427 
L 132.823122 161.52792 
L 141.909066 161.811248 
" style="fill:none;opacity:0.8;stroke:#1f77b4;stroke-linecap:square;stroke-width:1.5;"/>
   </g>
   <g id="line2d_13">
    <path clip-path="url(#pe2c50c8111)" d="M 41.963678 159.92206 
L 51.049622 160.09974 
L 60.135566 160.178891 
L 69.221511 160.232977 
L 78.307455 160.300006 
L 87.3934 160.381766 
L 96.479344 160.50797 
L 105.565288 160.660687 
L 114.651233 160.74504 
L 123.737177 160.880226 
L 132.823122 160.993441 
L 141.909066 161.250732 
L 150.99501 161.403779 
L 160.080955 161.463147 
L 169.166899 161.833881 
" style="fill:none;opacity:0.8;stroke:#ff7f0e;stroke-linecap:square;stroke-width:1.5;"/>
   </g>
   <g id="line2d_14">
    <path clip-path="url(#pe2c50c8111)" d="M 41.963678 27.589347 
L 51.049622 37.077762 
L 60.135566 44.992316 
L 69.221511 45.183049 
L 78.307455 43.362367 
L 87.3934 45.801785 
L 96.479344 46.614506 
L 105.565288 43.497748 
L 114.651233 46.716783 
L 123.737177 43.954481 
L 132.823122 44.434515 
" style="fill:none;opacity:0.8;stroke:#2ca02c;stroke-linecap:square;stroke-width:1.5;"/>
   </g>
   <g id="line2d_15">
    <path clip-path="url(#pe2c50c8111)" d="M 41.963678 160.010833 
L 51.049622 160.131095 
L 60.135566 160.191817 
L 69.221511 160.261862 
L 78.307455 160.335542 
L 87.3934 160.356481 
L 96.479344 160.42542 
L 105.565288 160.605006 
L 114.651233 160.642329 
L 123.737177 160.857085 
L 132.823122 160.936289 
L 141.909066 161.149844 
L 150.99501 161.310811 
L 160.080955 161.474534 
L 169.166899 161.656133 
L 178.252843 161.856954 
L 187.338788 162.032859 
" style="fill:none;opacity:0.8;stroke:#d62728;stroke-linecap:square;stroke-width:1.5;"/>
   </g>
   <g id="line2d_16">
    <path clip-path="url(#pe2c50c8111)" d="M 41.963678 159.990116 
L 51.049622 160.212389 
L 60.135566 160.286566 
L 69.221511 160.386848 
L 78.307455 160.5287 
L 87.3934 160.679141 
L 96.479344 160.873569 
L 105.565288 161.108265 
L 114.651233 161.231099 
L 123.737177 161.511282 
L 132.823122 161.716066 
L 141.909066 161.93834 
L 150.99501 162.141835 
L 160.080955 162.422308 
L 169.166899 162.656154 
L 178.252843 162.881473 
L 187.338788 163.174095 
L 196.424732 163.407528 
" style="fill:none;opacity:0.8;stroke:#9467bd;stroke-linecap:square;stroke-width:1.5;"/>
   </g>
   <g id="patch_3">
    <path d="M 34.240625 170.198437 
L 34.240625 20.798438 
" style="fill:none;stroke:#000000;stroke-linecap:square;stroke-linejoin:miter;stroke-width:0.8;"/>
   </g>
   <g id="patch_4">
    <path d="M 34.240625 170.198437 
L 204.147785 170.198437 
" style="fill:none;stroke:#000000;stroke-linecap:square;stroke-linejoin:miter;stroke-width:0.8;"/>
   </g>
   <g id="text_14">
    <!-- variable = loss -->
    <defs>
     <path d="M 41.109375 46.296875 
Q 39.59375 47.171875 37.8125 47.578125 
Q 36.03125 48 33.890625 48 
Q 26.265625 48 22.1875 43.046875 
Q 18.109375 38.09375 18.109375 28.8125 
L 18.109375 0 
L 9.078125 0 
L 9.078125 54.6875 
L 18.109375 54.6875 
L 18.109375 46.1875 
Q 20.953125 51.171875 25.484375 53.578125 
Q 30.03125 56 36.53125 56 
Q 37.453125 56 38.578125 55.875 
Q 39.703125 55.765625 41.0625 55.515625 
z
" id="DejaVuSans-72"/>
     <path d="M 9.421875 54.6875 
L 18.40625 54.6875 
L 18.40625 0 
L 9.421875 0 
z
M 9.421875 75.984375 
L 18.40625 75.984375 
L 18.40625 64.59375 
L 9.421875 64.59375 
z
" id="DejaVuSans-69"/>
     <path d="M 48.6875 27.296875 
Q 48.6875 37.203125 44.609375 42.84375 
Q 40.53125 48.484375 33.40625 48.484375 
Q 26.265625 48.484375 22.1875 42.84375 
Q 18.109375 37.203125 18.109375 27.296875 
Q 18.109375 17.390625 22.1875 11.75 
Q 26.265625 6.109375 33.40625 6.109375 
Q 40.53125 6.109375 44.609375 11.75 
Q 48.6875 17.390625 48.6875 27.296875 
z
M 18.109375 46.390625 
Q 20.953125 51.265625 25.265625 53.625 
Q 29.59375 56 35.59375 56 
Q 45.5625 56 51.78125 48.09375 
Q 58.015625 40.1875 58.015625 27.296875 
Q 58.015625 14.40625 51.78125 6.484375 
Q 45.5625 -1.421875 35.59375 -1.421875 
Q 29.59375 -1.421875 25.265625 0.953125 
Q 20.953125 3.328125 18.109375 8.203125 
L 18.109375 0 
L 9.078125 0 
L 9.078125 75.984375 
L 18.109375 75.984375 
z
" id="DejaVuSans-62"/>
     <path id="DejaVuSans-20"/>
     <path d="M 10.59375 45.40625 
L 73.1875 45.40625 
L 73.1875 37.203125 
L 10.59375 37.203125 
z
M 10.59375 25.484375 
L 73.1875 25.484375 
L 73.1875 17.1875 
L 10.59375 17.1875 
z
" id="DejaVuSans-3d"/>
     <path d="M 44.28125 53.078125 
L 44.28125 44.578125 
Q 40.484375 46.53125 36.375 47.5 
Q 32.28125 48.484375 27.875 48.484375 
Q 21.1875 48.484375 17.84375 46.4375 
Q 14.5 44.390625 14.5 40.28125 
Q 14.5 37.15625 16.890625 35.375 
Q 19.28125 33.59375 26.515625 31.984375 
L 29.59375 31.296875 
Q 39.15625 29.25 43.1875 25.515625 
Q 47.21875 21.78125 47.21875 15.09375 
Q 47.21875 7.46875 41.1875 3.015625 
Q 35.15625 -1.421875 24.609375 -1.421875 
Q 20.21875 -1.421875 15.453125 -0.5625 
Q 10.6875 0.296875 5.421875 2 
L 5.421875 11.28125 
Q 10.40625 8.6875 15.234375 7.390625 
Q 20.0625 6.109375 24.8125 6.109375 
Q 31.15625 6.109375 34.5625 8.28125 
Q 37.984375 10.453125 37.984375 14.40625 
Q 37.984375 18.0625 35.515625 20.015625 
Q 33.0625 21.96875 24.703125 23.78125 
L 21.578125 24.515625 
Q 13.234375 26.265625 9.515625 29.90625 
Q 5.8125 33.546875 5.8125 39.890625 
Q 5.8125 47.609375 11.28125 51.796875 
Q 16.75 56 26.8125 56 
Q 31.78125 56 36.171875 55.265625 
Q 40.578125 54.546875 44.28125 53.078125 
z
" id="DejaVuSans-73"/>
    </defs>
    <g transform="translate(81.996549 14.798438)scale(0.1 -0.1)">
     <use xlink:href="#DejaVuSans-76"/>
     <use x="59.179688" xlink:href="#DejaVuSans-61"/>
     <use x="120.458984" xlink:href="#DejaVuSans-72"/>
     <use x="161.572266" xlink:href="#DejaVuSans-69"/>
     <use x="189.355469" xlink:href="#DejaVuSans-61"/>
     <use x="250.634766" xlink:href="#DejaVuSans-62"/>
     <use x="314.111328" xlink:href="#DejaVuSans-6c"/>
     <use x="341.894531" xlink:href="#DejaVuSans-65"/>
     <use x="403.417969" xlink:href="#DejaVuSans-20"/>
     <use x="435.205078" xlink:href="#DejaVuSans-3d"/>
     <use x="518.994141" xlink:href="#DejaVuSans-20"/>
     <use x="550.78125" xlink:href="#DejaVuSans-6c"/>
     <use x="578.564453" xlink:href="#DejaVuSans-6f"/>
     <use x="639.746094" xlink:href="#DejaVuSans-73"/>
     <use x="691.845703" xlink:href="#DejaVuSans-73"/>
    </g>
   </g>
  </g>
  <g id="axes_2">
   <g id="patch_5">
    <path d="M 247.618065 170.198437 
L 417.525225 170.198437 
L 417.525225 20.798438 
L 247.618065 20.798438 
z
" style="fill:#ffffff;"/>
   </g>
   <g id="matplotlib.axis_3">
    <g id="xtick_5">
     <g id="line2d_17">
      <g>
       <use style="stroke:#000000;stroke-width:0.8;" x="255.341118" xlink:href="#m801d7903ca" y="170.198437"/>
      </g>
     </g>
     <g id="text_15">
      <!-- 0 -->
      <g transform="translate(252.159868 184.796875)scale(0.1 -0.1)">
       <use xlink:href="#DejaVuSans-30"/>
      </g>
     </g>
    </g>
    <g id="xtick_6">
     <g id="line2d_18">
      <g>
       <use style="stroke:#000000;stroke-width:0.8;" x="300.77084" xlink:href="#m801d7903ca" y="170.198437"/>
      </g>
     </g>
     <g id="text_16">
      <!-- 5 -->
      <g transform="translate(297.58959 184.796875)scale(0.1 -0.1)">
       <use xlink:href="#DejaVuSans-35"/>
      </g>
     </g>
    </g>
    <g id="xtick_7">
     <g id="line2d_19">
      <g>
       <use style="stroke:#000000;stroke-width:0.8;" x="346.200562" xlink:href="#m801d7903ca" y="170.198437"/>
      </g>
     </g>
     <g id="text_17">
      <!-- 10 -->
      <g transform="translate(339.838062 184.796875)scale(0.1 -0.1)">
       <use xlink:href="#DejaVuSans-31"/>
       <use x="63.623047" xlink:href="#DejaVuSans-30"/>
      </g>
     </g>
    </g>
    <g id="xtick_8">
     <g id="line2d_20">
      <g>
       <use style="stroke:#000000;stroke-width:0.8;" x="391.630284" xlink:href="#m801d7903ca" y="170.198437"/>
      </g>
     </g>
     <g id="text_18">
      <!-- 15 -->
      <g transform="translate(385.267784 184.796875)scale(0.1 -0.1)">
       <use xlink:href="#DejaVuSans-31"/>
       <use x="63.623047" xlink:href="#DejaVuSans-35"/>
      </g>
     </g>
    </g>
    <g id="text_19">
     <!-- epoch -->
     <g transform="translate(317.34352 198.475)scale(0.1 -0.1)">
      <use xlink:href="#DejaVuSans-65"/>
      <use x="61.523438" xlink:href="#DejaVuSans-70"/>
      <use x="125" xlink:href="#DejaVuSans-6f"/>
      <use x="186.181641" xlink:href="#DejaVuSans-63"/>
      <use x="241.162109" xlink:href="#DejaVuSans-68"/>
     </g>
    </g>
   </g>
   <g id="matplotlib.axis_4">
    <g id="ytick_8">
     <g id="line2d_21">
      <g>
       <use style="stroke:#000000;stroke-width:0.8;" x="247.618065" xlink:href="#mf908ce2f9e" y="142.102713"/>
      </g>
     </g>
     <g id="text_20">
      <!-- 0.60 -->
      <defs>
       <path d="M 10.6875 12.40625 
L 21 12.40625 
L 21 0 
L 10.6875 0 
z
" id="DejaVuSans-2e"/>
      </defs>
      <g transform="translate(218.35244 145.901932)scale(0.1 -0.1)">
       <use xlink:href="#DejaVuSans-30"/>
       <use x="63.623047" xlink:href="#DejaVuSans-2e"/>
       <use x="95.410156" xlink:href="#DejaVuSans-36"/>
       <use x="159.033203" xlink:href="#DejaVuSans-30"/>
      </g>
     </g>
    </g>
    <g id="ytick_9">
     <g id="line2d_22">
      <g>
       <use style="stroke:#000000;stroke-width:0.8;" x="247.618065" xlink:href="#mf908ce2f9e" y="107.149506"/>
      </g>
     </g>
     <g id="text_21">
      <!-- 0.65 -->
      <g transform="translate(218.35244 110.948724)scale(0.1 -0.1)">
       <use xlink:href="#DejaVuSans-30"/>
       <use x="63.623047" xlink:href="#DejaVuSans-2e"/>
       <use x="95.410156" xlink:href="#DejaVuSans-36"/>
       <use x="159.033203" xlink:href="#DejaVuSans-35"/>
      </g>
     </g>
    </g>
    <g id="ytick_10">
     <g id="line2d_23">
      <g>
       <use style="stroke:#000000;stroke-width:0.8;" x="247.618065" xlink:href="#mf908ce2f9e" y="72.196298"/>
      </g>
     </g>
     <g id="text_22">
      <!-- 0.70 -->
      <g transform="translate(218.35244 75.995517)scale(0.1 -0.1)">
       <use xlink:href="#DejaVuSans-30"/>
       <use x="63.623047" xlink:href="#DejaVuSans-2e"/>
       <use x="95.410156" xlink:href="#DejaVuSans-37"/>
       <use x="159.033203" xlink:href="#DejaVuSans-30"/>
      </g>
     </g>
    </g>
    <g id="ytick_11">
     <g id="line2d_24">
      <g>
       <use style="stroke:#000000;stroke-width:0.8;" x="247.618065" xlink:href="#mf908ce2f9e" y="37.24309"/>
      </g>
     </g>
     <g id="text_23">
      <!-- 0.75 -->
      <g transform="translate(218.35244 41.042309)scale(0.1 -0.1)">
       <use xlink:href="#DejaVuSans-30"/>
       <use x="63.623047" xlink:href="#DejaVuSans-2e"/>
       <use x="95.410156" xlink:href="#DejaVuSans-37"/>
       <use x="159.033203" xlink:href="#DejaVuSans-35"/>
      </g>
     </g>
    </g>
   </g>
   <g id="line2d_25">
    <path clip-path="url(#p61d3b0d0b6)" d="M 255.341118 135.777847 
L 264.427063 127.788543 
L 273.513007 127.899507 
L 282.598951 126.124105 
L 291.684896 126.235066 
L 300.77084 124.348705 
L 309.856784 122.01849 
L 318.942729 116.02651 
L 328.028673 112.475709 
L 337.114618 107.593354 
L 346.200562 97.162876 
L 355.286506 82.40485 
" style="fill:none;opacity:0.8;stroke:#1f77b4;stroke-linecap:square;stroke-width:1.5;"/>
   </g>
   <g id="line2d_26">
    <path clip-path="url(#p61d3b0d0b6)" d="M 255.341118 136.776513 
L 264.427063 128.343354 
L 273.513007 128.121432 
L 282.598951 127.566616 
L 291.684896 128.121429 
L 300.77084 128.01047 
L 309.856784 125.680251 
L 318.942729 121.352713 
L 328.028673 121.019824 
L 337.114618 115.804587 
L 346.200562 111.033194 
L 355.286506 104.153515 
L 364.372451 100.269825 
L 373.458395 99.049235 
L 382.54434 84.624106 
" style="fill:none;opacity:0.8;stroke:#ff7f0e;stroke-linecap:square;stroke-width:1.5;"/>
   </g>
   <g id="line2d_27">
    <path clip-path="url(#p61d3b0d0b6)" d="M 255.341118 163.407528 
L 264.427063 144.321965 
L 273.513007 135.444961 
L 282.598951 135.333999 
L 291.684896 138.662873 
L 300.77084 134.335334 
L 309.856784 132.89282 
L 318.942729 139.106725 
L 328.028673 132.781857 
L 337.114618 138.995761 
L 346.200562 136.998437 
" style="fill:none;opacity:0.8;stroke:#2ca02c;stroke-linecap:square;stroke-width:1.5;"/>
   </g>
   <g id="line2d_28">
    <path clip-path="url(#p61d3b0d0b6)" d="M 255.341118 134.446298 
L 264.427063 128.454317 
L 273.513007 128.010468 
L 282.598951 128.343358 
L 291.684896 128.676243 
L 300.77084 127.899508 
L 309.856784 128.01047 
L 318.942729 124.237741 
L 328.028673 122.018492 
L 337.114618 114.362072 
L 346.200562 111.920896 
L 355.286506 106.483729 
L 364.372451 100.713677 
L 373.458395 92.835335 
L 382.54434 86.288541 
L 391.630284 78.965017 
L 400.716228 76.19095 
" style="fill:none;opacity:0.8;stroke:#d62728;stroke-linecap:square;stroke-width:1.5;"/>
   </g>
   <g id="line2d_29">
    <path clip-path="url(#p61d3b0d0b6)" d="M 255.341118 135.555923 
L 264.427063 128.565282 
L 273.513007 128.565279 
L 282.598951 126.013141 
L 291.684896 124.12678 
L 300.77084 118.578649 
L 309.856784 114.362071 
L 318.942729 103.931591 
L 328.028673 98.050575 
L 337.114618 85.955654 
L 346.200562 79.852715 
L 355.286506 71.197633 
L 364.372451 63.430256 
L 373.458395 57.216353 
L 382.54434 49.892822 
L 391.630284 41.903516 
L 400.716228 33.914214 
L 409.802173 27.589347 
" style="fill:none;opacity:0.8;stroke:#9467bd;stroke-linecap:square;stroke-width:1.5;"/>
   </g>
   <g id="patch_6">
    <path d="M 247.618065 170.198438 
L 247.618065 20.798438 
" style="fill:none;stroke:#000000;stroke-linecap:square;stroke-linejoin:miter;stroke-width:0.8;"/>
   </g>
   <g id="patch_7">
    <path d="M 247.618065 170.198437 
L 417.525225 170.198437 
" style="fill:none;stroke:#000000;stroke-linecap:square;stroke-linejoin:miter;stroke-width:0.8;"/>
   </g>
   <g id="text_24">
    <!-- variable = acc -->
    <g transform="translate(296.469302 14.798438)scale(0.1 -0.1)">
     <use xlink:href="#DejaVuSans-76"/>
     <use x="59.179688" xlink:href="#DejaVuSans-61"/>
     <use x="120.458984" xlink:href="#DejaVuSans-72"/>
     <use x="161.572266" xlink:href="#DejaVuSans-69"/>
     <use x="189.355469" xlink:href="#DejaVuSans-61"/>
     <use x="250.634766" xlink:href="#DejaVuSans-62"/>
     <use x="314.111328" xlink:href="#DejaVuSans-6c"/>
     <use x="341.894531" xlink:href="#DejaVuSans-65"/>
     <use x="403.417969" xlink:href="#DejaVuSans-20"/>
     <use x="435.205078" xlink:href="#DejaVuSans-3d"/>
     <use x="518.994141" xlink:href="#DejaVuSans-20"/>
     <use x="550.78125" xlink:href="#DejaVuSans-61"/>
     <use x="612.060547" xlink:href="#DejaVuSans-63"/>
     <use x="667.041016" xlink:href="#DejaVuSans-63"/>
    </g>
   </g>
  </g>
  <g id="axes_3">
   <g id="patch_8">
    <path d="M 460.995506 170.198437 
L 630.902666 170.198437 
L 630.902666 20.798438 
L 460.995506 20.798438 
z
" style="fill:#ffffff;"/>
   </g>
   <g id="matplotlib.axis_5">
    <g id="xtick_9">
     <g id="line2d_30">
      <g>
       <use style="stroke:#000000;stroke-width:0.8;" x="468.718559" xlink:href="#m801d7903ca" y="170.198437"/>
      </g>
     </g>
     <g id="text_25">
      <!-- 0 -->
      <g transform="translate(465.537309 184.796875)scale(0.1 -0.1)">
       <use xlink:href="#DejaVuSans-30"/>
      </g>
     </g>
    </g>
    <g id="xtick_10">
     <g id="line2d_31">
      <g>
       <use style="stroke:#000000;stroke-width:0.8;" x="514.148281" xlink:href="#m801d7903ca" y="170.198437"/>
      </g>
     </g>
     <g id="text_26">
      <!-- 5 -->
      <g transform="translate(510.967031 184.796875)scale(0.1 -0.1)">
       <use xlink:href="#DejaVuSans-35"/>
      </g>
     </g>
    </g>
    <g id="xtick_11">
     <g id="line2d_32">
      <g>
       <use style="stroke:#000000;stroke-width:0.8;" x="559.578002" xlink:href="#m801d7903ca" y="170.198437"/>
      </g>
     </g>
     <g id="text_27">
      <!-- 10 -->
      <g transform="translate(553.215502 184.796875)scale(0.1 -0.1)">
       <use xlink:href="#DejaVuSans-31"/>
       <use x="63.623047" xlink:href="#DejaVuSans-30"/>
      </g>
     </g>
    </g>
    <g id="xtick_12">
     <g id="line2d_33">
      <g>
       <use style="stroke:#000000;stroke-width:0.8;" x="605.007724" xlink:href="#m801d7903ca" y="170.198437"/>
      </g>
     </g>
     <g id="text_28">
      <!-- 15 -->
      <g transform="translate(598.645224 184.796875)scale(0.1 -0.1)">
       <use xlink:href="#DejaVuSans-31"/>
       <use x="63.623047" xlink:href="#DejaVuSans-35"/>
      </g>
     </g>
    </g>
    <g id="text_29">
     <!-- epoch -->
     <g transform="translate(530.720961 198.475)scale(0.1 -0.1)">
      <use xlink:href="#DejaVuSans-65"/>
      <use x="61.523438" xlink:href="#DejaVuSans-70"/>
      <use x="125" xlink:href="#DejaVuSans-6f"/>
      <use x="186.181641" xlink:href="#DejaVuSans-63"/>
      <use x="241.162109" xlink:href="#DejaVuSans-68"/>
     </g>
    </g>
   </g>
   <g id="matplotlib.axis_6">
    <g id="ytick_12">
     <g id="line2d_34">
      <g>
       <use style="stroke:#000000;stroke-width:0.8;" x="460.995506" xlink:href="#mf908ce2f9e" y="155.846903"/>
      </g>
     </g>
     <g id="text_30">
      <!-- 1 -->
      <g transform="translate(447.633006 159.646122)scale(0.1 -0.1)">
       <use xlink:href="#DejaVuSans-31"/>
      </g>
     </g>
    </g>
    <g id="ytick_13">
     <g id="line2d_35">
      <g>
       <use style="stroke:#000000;stroke-width:0.8;" x="460.995506" xlink:href="#mf908ce2f9e" y="132.682269"/>
      </g>
     </g>
     <g id="text_31">
      <!-- 2 -->
      <g transform="translate(447.633006 136.481487)scale(0.1 -0.1)">
       <use xlink:href="#DejaVuSans-32"/>
      </g>
     </g>
    </g>
    <g id="ytick_14">
     <g id="line2d_36">
      <g>
       <use style="stroke:#000000;stroke-width:0.8;" x="460.995506" xlink:href="#mf908ce2f9e" y="109.517634"/>
      </g>
     </g>
     <g id="text_32">
      <!-- 3 -->
      <g transform="translate(447.633006 113.316853)scale(0.1 -0.1)">
       <use xlink:href="#DejaVuSans-33"/>
      </g>
     </g>
    </g>
    <g id="ytick_15">
     <g id="line2d_37">
      <g>
       <use style="stroke:#000000;stroke-width:0.8;" x="460.995506" xlink:href="#mf908ce2f9e" y="86.353"/>
      </g>
     </g>
     <g id="text_33">
      <!-- 4 -->
      <g transform="translate(447.633006 90.152219)scale(0.1 -0.1)">
       <use xlink:href="#DejaVuSans-34"/>
      </g>
     </g>
    </g>
    <g id="ytick_16">
     <g id="line2d_38">
      <g>
       <use style="stroke:#000000;stroke-width:0.8;" x="460.995506" xlink:href="#mf908ce2f9e" y="63.188366"/>
      </g>
     </g>
     <g id="text_34">
      <!-- 5 -->
      <g transform="translate(447.633006 66.987584)scale(0.1 -0.1)">
       <use xlink:href="#DejaVuSans-35"/>
      </g>
     </g>
    </g>
    <g id="ytick_17">
     <g id="line2d_39">
      <g>
       <use style="stroke:#000000;stroke-width:0.8;" x="460.995506" xlink:href="#mf908ce2f9e" y="40.023731"/>
      </g>
     </g>
     <g id="text_35">
      <!-- 6 -->
      <g transform="translate(447.633006 43.82295)scale(0.1 -0.1)">
       <use xlink:href="#DejaVuSans-36"/>
      </g>
     </g>
    </g>
   </g>
   <g id="line2d_40">
    <path clip-path="url(#p7cda89e4f2)" d="M 468.718559 163.382141 
L 477.804503 163.397469 
L 486.890447 163.302569 
L 495.976392 163.311573 
L 505.062336 163.394615 
L 514.148281 163.321483 
L 523.234225 163.363397 
L 532.320169 163.377406 
L 541.406114 163.347437 
L 550.492058 163.284632 
L 559.578002 163.283567 
L 568.663947 163.196232 
" style="fill:none;opacity:0.8;stroke:#1f77b4;stroke-linecap:square;stroke-width:1.5;"/>
   </g>
   <g id="line2d_41">
    <path clip-path="url(#p7cda89e4f2)" d="M 468.718559 163.393411 
L 477.804503 163.379656 
L 486.890447 163.37906 
L 495.976392 163.379053 
L 505.062336 163.400355 
L 514.148281 163.3934 
L 523.234225 162.744912 
L 532.320169 163.289811 
L 541.406114 162.826171 
L 550.492058 162.940102 
L 559.578002 162.913358 
L 568.663947 162.997971 
L 577.749891 162.751838 
L 586.835836 162.662322 
L 595.92178 162.153718 
" style="fill:none;opacity:0.8;stroke:#ff7f0e;stroke-linecap:square;stroke-width:1.5;"/>
   </g>
   <g id="line2d_42">
    <path clip-path="url(#p7cda89e4f2)" d="M 468.718559 27.589347 
L 477.804503 27.589347 
L 486.890447 27.589347 
L 495.976392 27.589347 
L 505.062336 27.589347 
L 514.148281 27.589347 
L 523.234225 27.589347 
L 532.320169 27.589347 
L 541.406114 27.589347 
L 550.492058 27.589347 
L 559.578002 27.589347 
" style="fill:none;opacity:0.8;stroke:#2ca02c;stroke-linecap:square;stroke-width:1.5;"/>
   </g>
   <g id="line2d_43">
    <path clip-path="url(#p7cda89e4f2)" d="M 468.718559 163.355732 
L 477.804503 163.376161 
L 486.890447 163.293418 
L 495.976392 163.317281 
L 505.062336 163.375169 
L 514.148281 163.371275 
L 523.234225 163.39225 
L 532.320169 163.15832 
L 541.406114 163.271382 
L 550.492058 163.336089 
L 559.578002 163.179187 
L 568.663947 163.014176 
L 577.749891 162.960793 
L 586.835836 163.227877 
L 595.92178 163.081101 
L 605.007724 162.978569 
L 614.093669 163.07878 
" style="fill:none;opacity:0.8;stroke:#d62728;stroke-linecap:square;stroke-width:1.5;"/>
   </g>
   <g id="line2d_44">
    <path clip-path="url(#p7cda89e4f2)" d="M 468.718559 163.359437 
L 477.804503 163.363379 
L 486.890447 163.354928 
L 495.976392 163.340253 
L 505.062336 163.268205 
L 514.148281 163.362856 
L 523.234225 163.402635 
L 532.320169 163.407528 
L 541.406114 163.377562 
L 550.492058 163.333342 
L 559.578002 163.102199 
L 568.663947 163.255083 
L 577.749891 163.136103 
L 586.835836 162.861042 
L 595.92178 163.028039 
L 605.007724 162.944963 
L 614.093669 162.775217 
L 623.179613 162.698165 
" style="fill:none;opacity:0.8;stroke:#9467bd;stroke-linecap:square;stroke-width:1.5;"/>
   </g>
   <g id="patch_9">
    <path d="M 460.995506 170.198437 
L 460.995506 20.798438 
" style="fill:none;stroke:#000000;stroke-linecap:square;stroke-linejoin:miter;stroke-width:0.8;"/>
   </g>
   <g id="patch_10">
    <path d="M 460.995506 170.198437 
L 630.902666 170.198437 
" style="fill:none;stroke:#000000;stroke-linecap:square;stroke-linejoin:miter;stroke-width:0.8;"/>
   </g>
   <g id="text_36">
    <!-- variable = val_loss -->
    <defs>
     <path d="M 50.984375 -16.609375 
L 50.984375 -23.578125 
L -0.984375 -23.578125 
L -0.984375 -16.609375 
z
" id="DejaVuSans-5f"/>
    </defs>
    <g transform="translate(498.83893 14.798438)scale(0.1 -0.1)">
     <use xlink:href="#DejaVuSans-76"/>
     <use x="59.179688" xlink:href="#DejaVuSans-61"/>
     <use x="120.458984" xlink:href="#DejaVuSans-72"/>
     <use x="161.572266" xlink:href="#DejaVuSans-69"/>
     <use x="189.355469" xlink:href="#DejaVuSans-61"/>
     <use x="250.634766" xlink:href="#DejaVuSans-62"/>
     <use x="314.111328" xlink:href="#DejaVuSans-6c"/>
     <use x="341.894531" xlink:href="#DejaVuSans-65"/>
     <use x="403.417969" xlink:href="#DejaVuSans-20"/>
     <use x="435.205078" xlink:href="#DejaVuSans-3d"/>
     <use x="518.994141" xlink:href="#DejaVuSans-20"/>
     <use x="550.78125" xlink:href="#DejaVuSans-76"/>
     <use x="609.960938" xlink:href="#DejaVuSans-61"/>
     <use x="671.240234" xlink:href="#DejaVuSans-6c"/>
     <use x="699.023438" xlink:href="#DejaVuSans-5f"/>
     <use x="749.023438" xlink:href="#DejaVuSans-6c"/>
     <use x="776.806641" xlink:href="#DejaVuSans-6f"/>
     <use x="837.988281" xlink:href="#DejaVuSans-73"/>
     <use x="890.087891" xlink:href="#DejaVuSans-73"/>
    </g>
   </g>
  </g>
  <g id="axes_4">
   <g id="patch_11">
    <path d="M 674.372946 170.198437 
L 844.280106 170.198437 
L 844.280106 20.798438 
L 674.372946 20.798438 
z
" style="fill:#ffffff;"/>
   </g>
   <g id="matplotlib.axis_7">
    <g id="xtick_13">
     <g id="line2d_45">
      <g>
       <use style="stroke:#000000;stroke-width:0.8;" x="682.095999" xlink:href="#m801d7903ca" y="170.198437"/>
      </g>
     </g>
     <g id="text_37">
      <!-- 0 -->
      <g transform="translate(678.914749 184.796875)scale(0.1 -0.1)">
       <use xlink:href="#DejaVuSans-30"/>
      </g>
     </g>
    </g>
    <g id="xtick_14">
     <g id="line2d_46">
      <g>
       <use style="stroke:#000000;stroke-width:0.8;" x="727.525721" xlink:href="#m801d7903ca" y="170.198437"/>
      </g>
     </g>
     <g id="text_38">
      <!-- 5 -->
      <g transform="translate(724.344471 184.796875)scale(0.1 -0.1)">
       <use xlink:href="#DejaVuSans-35"/>
      </g>
     </g>
    </g>
    <g id="xtick_15">
     <g id="line2d_47">
      <g>
       <use style="stroke:#000000;stroke-width:0.8;" x="772.955443" xlink:href="#m801d7903ca" y="170.198437"/>
      </g>
     </g>
     <g id="text_39">
      <!-- 10 -->
      <g transform="translate(766.592943 184.796875)scale(0.1 -0.1)">
       <use xlink:href="#DejaVuSans-31"/>
       <use x="63.623047" xlink:href="#DejaVuSans-30"/>
      </g>
     </g>
    </g>
    <g id="xtick_16">
     <g id="line2d_48">
      <g>
       <use style="stroke:#000000;stroke-width:0.8;" x="818.385165" xlink:href="#m801d7903ca" y="170.198437"/>
      </g>
     </g>
     <g id="text_40">
      <!-- 15 -->
      <g transform="translate(812.022665 184.796875)scale(0.1 -0.1)">
       <use xlink:href="#DejaVuSans-31"/>
       <use x="63.623047" xlink:href="#DejaVuSans-35"/>
      </g>
     </g>
    </g>
    <g id="text_41">
     <!-- epoch -->
     <g transform="translate(744.098401 198.475)scale(0.1 -0.1)">
      <use xlink:href="#DejaVuSans-65"/>
      <use x="61.523438" xlink:href="#DejaVuSans-70"/>
      <use x="125" xlink:href="#DejaVuSans-6f"/>
      <use x="186.181641" xlink:href="#DejaVuSans-63"/>
      <use x="241.162109" xlink:href="#DejaVuSans-68"/>
     </g>
    </g>
   </g>
   <g id="matplotlib.axis_8">
    <g id="ytick_18">
     <g id="line2d_49">
      <g>
       <use style="stroke:#000000;stroke-width:0.8;" x="674.372946" xlink:href="#mf908ce2f9e" y="157.806775"/>
      </g>
     </g>
     <g id="text_42">
      <!-- 0.50 -->
      <g transform="translate(645.107321 161.605994)scale(0.1 -0.1)">
       <use xlink:href="#DejaVuSans-30"/>
       <use x="63.623047" xlink:href="#DejaVuSans-2e"/>
       <use x="95.410156" xlink:href="#DejaVuSans-35"/>
       <use x="159.033203" xlink:href="#DejaVuSans-30"/>
      </g>
     </g>
    </g>
    <g id="ytick_19">
     <g id="line2d_50">
      <g>
       <use style="stroke:#000000;stroke-width:0.8;" x="674.372946" xlink:href="#mf908ce2f9e" y="132.603401"/>
      </g>
     </g>
     <g id="text_43">
      <!-- 0.52 -->
      <g transform="translate(645.107321 136.402619)scale(0.1 -0.1)">
       <use xlink:href="#DejaVuSans-30"/>
       <use x="63.623047" xlink:href="#DejaVuSans-2e"/>
       <use x="95.410156" xlink:href="#DejaVuSans-35"/>
       <use x="159.033203" xlink:href="#DejaVuSans-32"/>
      </g>
     </g>
    </g>
    <g id="ytick_20">
     <g id="line2d_51">
      <g>
       <use style="stroke:#000000;stroke-width:0.8;" x="674.372946" xlink:href="#mf908ce2f9e" y="107.400026"/>
      </g>
     </g>
     <g id="text_44">
      <!-- 0.54 -->
      <g transform="translate(645.107321 111.199245)scale(0.1 -0.1)">
       <use xlink:href="#DejaVuSans-30"/>
       <use x="63.623047" xlink:href="#DejaVuSans-2e"/>
       <use x="95.410156" xlink:href="#DejaVuSans-35"/>
       <use x="159.033203" xlink:href="#DejaVuSans-34"/>
      </g>
     </g>
    </g>
    <g id="ytick_21">
     <g id="line2d_52">
      <g>
       <use style="stroke:#000000;stroke-width:0.8;" x="674.372946" xlink:href="#mf908ce2f9e" y="82.196651"/>
      </g>
     </g>
     <g id="text_45">
      <!-- 0.56 -->
      <g transform="translate(645.107321 85.99587)scale(0.1 -0.1)">
       <use xlink:href="#DejaVuSans-30"/>
       <use x="63.623047" xlink:href="#DejaVuSans-2e"/>
       <use x="95.410156" xlink:href="#DejaVuSans-35"/>
       <use x="159.033203" xlink:href="#DejaVuSans-36"/>
      </g>
     </g>
    </g>
    <g id="ytick_22">
     <g id="line2d_53">
      <g>
       <use style="stroke:#000000;stroke-width:0.8;" x="674.372946" xlink:href="#mf908ce2f9e" y="56.993276"/>
      </g>
     </g>
     <g id="text_46">
      <!-- 0.58 -->
      <defs>
       <path d="M 31.78125 34.625 
Q 24.75 34.625 20.71875 30.859375 
Q 16.703125 27.09375 16.703125 20.515625 
Q 16.703125 13.921875 20.71875 10.15625 
Q 24.75 6.390625 31.78125 6.390625 
Q 38.8125 6.390625 42.859375 10.171875 
Q 46.921875 13.96875 46.921875 20.515625 
Q 46.921875 27.09375 42.890625 30.859375 
Q 38.875 34.625 31.78125 34.625 
z
M 21.921875 38.8125 
Q 15.578125 40.375 12.03125 44.71875 
Q 8.5 49.078125 8.5 55.328125 
Q 8.5 64.0625 14.71875 69.140625 
Q 20.953125 74.21875 31.78125 74.21875 
Q 42.671875 74.21875 48.875 69.140625 
Q 55.078125 64.0625 55.078125 55.328125 
Q 55.078125 49.078125 51.53125 44.71875 
Q 48 40.375 41.703125 38.8125 
Q 48.828125 37.15625 52.796875 32.3125 
Q 56.78125 27.484375 56.78125 20.515625 
Q 56.78125 9.90625 50.3125 4.234375 
Q 43.84375 -1.421875 31.78125 -1.421875 
Q 19.734375 -1.421875 13.25 4.234375 
Q 6.78125 9.90625 6.78125 20.515625 
Q 6.78125 27.484375 10.78125 32.3125 
Q 14.796875 37.15625 21.921875 38.8125 
z
M 18.3125 54.390625 
Q 18.3125 48.734375 21.84375 45.5625 
Q 25.390625 42.390625 31.78125 42.390625 
Q 38.140625 42.390625 41.71875 45.5625 
Q 45.3125 48.734375 45.3125 54.390625 
Q 45.3125 60.0625 41.71875 63.234375 
Q 38.140625 66.40625 31.78125 66.40625 
Q 25.390625 66.40625 21.84375 63.234375 
Q 18.3125 60.0625 18.3125 54.390625 
z
" id="DejaVuSans-38"/>
      </defs>
      <g transform="translate(645.107321 60.792495)scale(0.1 -0.1)">
       <use xlink:href="#DejaVuSans-30"/>
       <use x="63.623047" xlink:href="#DejaVuSans-2e"/>
       <use x="95.410156" xlink:href="#DejaVuSans-35"/>
       <use x="159.033203" xlink:href="#DejaVuSans-38"/>
      </g>
     </g>
    </g>
    <g id="ytick_23">
     <g id="line2d_54">
      <g>
       <use style="stroke:#000000;stroke-width:0.8;" x="674.372946" xlink:href="#mf908ce2f9e" y="31.789902"/>
      </g>
     </g>
     <g id="text_47">
      <!-- 0.60 -->
      <g transform="translate(645.107321 35.58912)scale(0.1 -0.1)">
       <use xlink:href="#DejaVuSans-30"/>
       <use x="63.623047" xlink:href="#DejaVuSans-2e"/>
       <use x="95.410156" xlink:href="#DejaVuSans-36"/>
       <use x="159.033203" xlink:href="#DejaVuSans-30"/>
      </g>
     </g>
    </g>
   </g>
   <g id="line2d_55">
    <path clip-path="url(#p6bd03efbd6)" d="M 682.095999 38.790836 
L 691.181944 38.790836 
L 700.267888 38.790836 
L 709.353832 38.790836 
L 718.439777 37.39065 
L 727.525721 38.790836 
L 736.611665 35.990463 
L 745.69761 37.390658 
L 754.783554 35.990472 
L 763.869499 31.789905 
L 772.955443 37.39065 
L 782.041387 34.590277 
" style="fill:none;opacity:0.8;stroke:#1f77b4;stroke-linecap:square;stroke-width:1.5;"/>
   </g>
   <g id="line2d_56">
    <path clip-path="url(#p6bd03efbd6)" d="M 682.095999 38.790836 
L 691.181944 38.790836 
L 700.267888 38.790836 
L 709.353832 38.790836 
L 718.439777 38.790836 
L 727.525721 38.790836 
L 736.611665 38.790836 
L 745.69761 37.39065 
L 754.783554 37.39065 
L 763.869499 37.39065 
L 772.955443 163.407528 
L 782.041387 134.003594 
L 791.127332 44.39158 
L 800.213276 45.791783 
L 809.29922 49.992325 
" style="fill:none;opacity:0.8;stroke:#ff7f0e;stroke-linecap:square;stroke-width:1.5;"/>
   </g>
   <g id="line2d_57">
    <path clip-path="url(#p6bd03efbd6)" d="M 682.095999 38.790836 
L 691.181944 38.790836 
L 700.267888 38.790836 
L 709.353832 38.790836 
L 718.439777 38.790836 
L 727.525721 38.790836 
L 736.611665 38.790836 
L 745.69761 38.790836 
L 754.783554 38.790836 
L 763.869499 38.790836 
L 772.955443 38.790836 
" style="fill:none;opacity:0.8;stroke:#2ca02c;stroke-linecap:square;stroke-width:1.5;"/>
   </g>
   <g id="line2d_58">
    <path clip-path="url(#p6bd03efbd6)" d="M 682.095999 38.790836 
L 691.181944 38.790836 
L 700.267888 38.790836 
L 709.353832 38.790836 
L 718.439777 38.790836 
L 727.525721 38.790836 
L 736.611665 35.990463 
L 745.69761 38.790836 
L 754.783554 38.790836 
L 763.869499 47.191961 
L 772.955443 37.39065 
L 782.041387 33.190091 
L 791.127332 34.590277 
L 800.213276 58.393459 
L 809.29922 45.791775 
L 818.385165 114.400971 
L 827.471109 76.595912 
" style="fill:none;opacity:0.8;stroke:#d62728;stroke-linecap:square;stroke-width:1.5;"/>
   </g>
   <g id="line2d_59">
    <path clip-path="url(#p6bd03efbd6)" d="M 682.095999 38.790836 
L 691.181944 38.790836 
L 700.267888 38.790836 
L 709.353832 38.790836 
L 718.439777 38.790836 
L 727.525721 37.39065 
L 736.611665 37.390658 
L 745.69761 35.990447 
L 754.783554 28.989524 
L 763.869499 37.390658 
L 772.955443 28.989516 
L 782.041387 42.991411 
L 791.127332 33.1901 
L 800.213276 27.589347 
L 809.29922 47.191969 
L 818.385165 77.99609 
L 827.471109 59.793661 
L 836.557054 68.194778 
" style="fill:none;opacity:0.8;stroke:#9467bd;stroke-linecap:square;stroke-width:1.5;"/>
   </g>
   <g id="patch_12">
    <path d="M 674.372946 170.198437 
L 674.372946 20.798437 
" style="fill:none;stroke:#000000;stroke-linecap:square;stroke-linejoin:miter;stroke-width:0.8;"/>
   </g>
   <g id="patch_13">
    <path d="M 674.372946 170.198437 
L 844.280106 170.198437 
" style="fill:none;stroke:#000000;stroke-linecap:square;stroke-linejoin:miter;stroke-width:0.8;"/>
   </g>
   <g id="text_48">
    <!-- variable = val_acc -->
    <g transform="translate(713.311683 14.798438)scale(0.1 -0.1)">
     <use xlink:href="#DejaVuSans-76"/>
     <use x="59.179688" xlink:href="#DejaVuSans-61"/>
     <use x="120.458984" xlink:href="#DejaVuSans-72"/>
     <use x="161.572266" xlink:href="#DejaVuSans-69"/>
     <use x="189.355469" xlink:href="#DejaVuSans-61"/>
     <use x="250.634766" xlink:href="#DejaVuSans-62"/>
     <use x="314.111328" xlink:href="#DejaVuSans-6c"/>
     <use x="341.894531" xlink:href="#DejaVuSans-65"/>
     <use x="403.417969" xlink:href="#DejaVuSans-20"/>
     <use x="435.205078" xlink:href="#DejaVuSans-3d"/>
     <use x="518.994141" xlink:href="#DejaVuSans-20"/>
     <use x="550.78125" xlink:href="#DejaVuSans-76"/>
     <use x="609.960938" xlink:href="#DejaVuSans-61"/>
     <use x="671.240234" xlink:href="#DejaVuSans-6c"/>
     <use x="699.023438" xlink:href="#DejaVuSans-5f"/>
     <use x="749.023438" xlink:href="#DejaVuSans-61"/>
     <use x="810.302734" xlink:href="#DejaVuSans-63"/>
     <use x="865.283203" xlink:href="#DejaVuSans-63"/>
    </g>
   </g>
  </g>
  <g id="legend_1">
   <g id="patch_14">
    <path d="M 853.643544 150.246094 
L 981.313856 150.246094 
Q 983.313856 150.246094 983.313856 148.246094 
L 983.313856 59.508594 
Q 983.313856 57.508594 981.313856 57.508594 
L 853.643544 57.508594 
Q 851.643544 57.508594 851.643544 59.508594 
L 851.643544 148.246094 
Q 851.643544 150.246094 853.643544 150.246094 
z
" style="fill:#ffffff;opacity:0.8;stroke:#cccccc;stroke-linejoin:miter;"/>
   </g>
   <g id="text_49">
    <!-- amino_acid_encoding -->
    <defs>
     <path d="M 52 44.1875 
Q 55.375 50.25 60.0625 53.125 
Q 64.75 56 71.09375 56 
Q 79.640625 56 84.28125 50.015625 
Q 88.921875 44.046875 88.921875 33.015625 
L 88.921875 0 
L 79.890625 0 
L 79.890625 32.71875 
Q 79.890625 40.578125 77.09375 44.375 
Q 74.3125 48.1875 68.609375 48.1875 
Q 61.625 48.1875 57.5625 43.546875 
Q 53.515625 38.921875 53.515625 30.90625 
L 53.515625 0 
L 44.484375 0 
L 44.484375 32.71875 
Q 44.484375 40.625 41.703125 44.40625 
Q 38.921875 48.1875 33.109375 48.1875 
Q 26.21875 48.1875 22.15625 43.53125 
Q 18.109375 38.875 18.109375 30.90625 
L 18.109375 0 
L 9.078125 0 
L 9.078125 54.6875 
L 18.109375 54.6875 
L 18.109375 46.1875 
Q 21.1875 51.21875 25.484375 53.609375 
Q 29.78125 56 35.6875 56 
Q 41.65625 56 45.828125 52.96875 
Q 50 49.953125 52 44.1875 
z
" id="DejaVuSans-6d"/>
     <path d="M 54.890625 33.015625 
L 54.890625 0 
L 45.90625 0 
L 45.90625 32.71875 
Q 45.90625 40.484375 42.875 44.328125 
Q 39.84375 48.1875 33.796875 48.1875 
Q 26.515625 48.1875 22.3125 43.546875 
Q 18.109375 38.921875 18.109375 30.90625 
L 18.109375 0 
L 9.078125 0 
L 9.078125 54.6875 
L 18.109375 54.6875 
L 18.109375 46.1875 
Q 21.34375 51.125 25.703125 53.5625 
Q 30.078125 56 35.796875 56 
Q 45.21875 56 50.046875 50.171875 
Q 54.890625 44.34375 54.890625 33.015625 
z
" id="DejaVuSans-6e"/>
     <path d="M 45.40625 46.390625 
L 45.40625 75.984375 
L 54.390625 75.984375 
L 54.390625 0 
L 45.40625 0 
L 45.40625 8.203125 
Q 42.578125 3.328125 38.25 0.953125 
Q 33.9375 -1.421875 27.875 -1.421875 
Q 17.96875 -1.421875 11.734375 6.484375 
Q 5.515625 14.40625 5.515625 27.296875 
Q 5.515625 40.1875 11.734375 48.09375 
Q 17.96875 56 27.875 56 
Q 33.9375 56 38.25 53.625 
Q 42.578125 51.265625 45.40625 46.390625 
z
M 14.796875 27.296875 
Q 14.796875 17.390625 18.875 11.75 
Q 22.953125 6.109375 30.078125 6.109375 
Q 37.203125 6.109375 41.296875 11.75 
Q 45.40625 17.390625 45.40625 27.296875 
Q 45.40625 37.203125 41.296875 42.84375 
Q 37.203125 48.484375 30.078125 48.484375 
Q 22.953125 48.484375 18.875 42.84375 
Q 14.796875 37.203125 14.796875 27.296875 
z
" id="DejaVuSans-64"/>
     <path d="M 45.40625 27.984375 
Q 45.40625 37.75 41.375 43.109375 
Q 37.359375 48.484375 30.078125 48.484375 
Q 22.859375 48.484375 18.828125 43.109375 
Q 14.796875 37.75 14.796875 27.984375 
Q 14.796875 18.265625 18.828125 12.890625 
Q 22.859375 7.515625 30.078125 7.515625 
Q 37.359375 7.515625 41.375 12.890625 
Q 45.40625 18.265625 45.40625 27.984375 
z
M 54.390625 6.78125 
Q 54.390625 -7.171875 48.1875 -13.984375 
Q 42 -20.796875 29.203125 -20.796875 
Q 24.46875 -20.796875 20.265625 -20.09375 
Q 16.0625 -19.390625 12.109375 -17.921875 
L 12.109375 -9.1875 
Q 16.0625 -11.328125 19.921875 -12.34375 
Q 23.78125 -13.375 27.78125 -13.375 
Q 36.625 -13.375 41.015625 -8.765625 
Q 45.40625 -4.15625 45.40625 5.171875 
L 45.40625 9.625 
Q 42.625 4.78125 38.28125 2.390625 
Q 33.9375 0 27.875 0 
Q 17.828125 0 11.671875 7.65625 
Q 5.515625 15.328125 5.515625 27.984375 
Q 5.515625 40.671875 11.671875 48.328125 
Q 17.828125 56 27.875 56 
Q 33.9375 56 38.28125 53.609375 
Q 42.625 51.21875 45.40625 46.390625 
L 45.40625 54.6875 
L 54.390625 54.6875 
z
" id="DejaVuSans-67"/>
    </defs>
    <g transform="translate(863.590419 69.107031)scale(0.1 -0.1)">
     <use xlink:href="#DejaVuSans-61"/>
     <use x="61.279297" xlink:href="#DejaVuSans-6d"/>
     <use x="158.691406" xlink:href="#DejaVuSans-69"/>
     <use x="186.474609" xlink:href="#DejaVuSans-6e"/>
     <use x="249.853516" xlink:href="#DejaVuSans-6f"/>
     <use x="311.035156" xlink:href="#DejaVuSans-5f"/>
     <use x="361.035156" xlink:href="#DejaVuSans-61"/>
     <use x="422.314453" xlink:href="#DejaVuSans-63"/>
     <use x="477.294922" xlink:href="#DejaVuSans-69"/>
     <use x="505.078125" xlink:href="#DejaVuSans-64"/>
     <use x="568.554688" xlink:href="#DejaVuSans-5f"/>
     <use x="618.554688" xlink:href="#DejaVuSans-65"/>
     <use x="680.078125" xlink:href="#DejaVuSans-6e"/>
     <use x="743.457031" xlink:href="#DejaVuSans-63"/>
     <use x="798.4375" xlink:href="#DejaVuSans-6f"/>
     <use x="859.619141" xlink:href="#DejaVuSans-64"/>
     <use x="923.095703" xlink:href="#DejaVuSans-69"/>
     <use x="950.878906" xlink:href="#DejaVuSans-6e"/>
     <use x="1014.257812" xlink:href="#DejaVuSans-67"/>
    </g>
   </g>
   <g id="line2d_60">
    <path d="M 855.643544 80.563281 
L 875.643544 80.563281 
" style="fill:none;opacity:0.8;stroke:#1f77b4;stroke-linecap:square;stroke-width:1.5;"/>
   </g>
   <g id="line2d_61"/>
   <g id="text_50">
    <!-- one_hot_encoding -->
    <defs>
     <path d="M 18.3125 70.21875 
L 18.3125 54.6875 
L 36.8125 54.6875 
L 36.8125 47.703125 
L 18.3125 47.703125 
L 18.3125 18.015625 
Q 18.3125 11.328125 20.140625 9.421875 
Q 21.96875 7.515625 27.59375 7.515625 
L 36.8125 7.515625 
L 36.8125 0 
L 27.59375 0 
Q 17.1875 0 13.234375 3.875 
Q 9.28125 7.765625 9.28125 18.015625 
L 9.28125 47.703125 
L 2.6875 47.703125 
L 2.6875 54.6875 
L 9.28125 54.6875 
L 9.28125 70.21875 
z
" id="DejaVuSans-74"/>
    </defs>
    <g transform="translate(883.643544 84.063281)scale(0.1 -0.1)">
     <use xlink:href="#DejaVuSans-6f"/>
     <use x="61.181641" xlink:href="#DejaVuSans-6e"/>
     <use x="124.560547" xlink:href="#DejaVuSans-65"/>
     <use x="186.083984" xlink:href="#DejaVuSans-5f"/>
     <use x="236.083984" xlink:href="#DejaVuSans-68"/>
     <use x="299.462891" xlink:href="#DejaVuSans-6f"/>
     <use x="360.644531" xlink:href="#DejaVuSans-74"/>
     <use x="399.853516" xlink:href="#DejaVuSans-5f"/>
     <use x="449.853516" xlink:href="#DejaVuSans-65"/>
     <use x="511.376953" xlink:href="#DejaVuSans-6e"/>
     <use x="574.755859" xlink:href="#DejaVuSans-63"/>
     <use x="629.736328" xlink:href="#DejaVuSans-6f"/>
     <use x="690.917969" xlink:href="#DejaVuSans-64"/>
     <use x="754.394531" xlink:href="#DejaVuSans-69"/>
     <use x="782.177734" xlink:href="#DejaVuSans-6e"/>
     <use x="845.556641" xlink:href="#DejaVuSans-67"/>
    </g>
   </g>
   <g id="line2d_62">
    <path d="M 855.643544 95.519531 
L 875.643544 95.519531 
" style="fill:none;opacity:0.8;stroke:#ff7f0e;stroke-linecap:square;stroke-width:1.5;"/>
   </g>
   <g id="line2d_63"/>
   <g id="text_51">
    <!-- side_chain_polarity -->
    <defs>
     <path d="M 32.171875 -5.078125 
Q 28.375 -14.84375 24.75 -17.8125 
Q 21.140625 -20.796875 15.09375 -20.796875 
L 7.90625 -20.796875 
L 7.90625 -13.28125 
L 13.1875 -13.28125 
Q 16.890625 -13.28125 18.9375 -11.515625 
Q 21 -9.765625 23.484375 -3.21875 
L 25.09375 0.875 
L 2.984375 54.6875 
L 12.5 54.6875 
L 29.59375 11.921875 
L 46.6875 54.6875 
L 56.203125 54.6875 
z
" id="DejaVuSans-79"/>
    </defs>
    <g transform="translate(883.643544 99.019531)scale(0.1 -0.1)">
     <use xlink:href="#DejaVuSans-73"/>
     <use x="52.099609" xlink:href="#DejaVuSans-69"/>
     <use x="79.882812" xlink:href="#DejaVuSans-64"/>
     <use x="143.359375" xlink:href="#DejaVuSans-65"/>
     <use x="204.882812" xlink:href="#DejaVuSans-5f"/>
     <use x="254.882812" xlink:href="#DejaVuSans-63"/>
     <use x="309.863281" xlink:href="#DejaVuSans-68"/>
     <use x="373.242188" xlink:href="#DejaVuSans-61"/>
     <use x="434.521484" xlink:href="#DejaVuSans-69"/>
     <use x="462.304688" xlink:href="#DejaVuSans-6e"/>
     <use x="525.683594" xlink:href="#DejaVuSans-5f"/>
     <use x="575.683594" xlink:href="#DejaVuSans-70"/>
     <use x="639.160156" xlink:href="#DejaVuSans-6f"/>
     <use x="700.341797" xlink:href="#DejaVuSans-6c"/>
     <use x="728.125" xlink:href="#DejaVuSans-61"/>
     <use x="789.404297" xlink:href="#DejaVuSans-72"/>
     <use x="830.517578" xlink:href="#DejaVuSans-69"/>
     <use x="858.300781" xlink:href="#DejaVuSans-74"/>
     <use x="897.509766" xlink:href="#DejaVuSans-79"/>
    </g>
   </g>
   <g id="line2d_64">
    <path d="M 855.643544 110.475781 
L 875.643544 110.475781 
" style="fill:none;opacity:0.8;stroke:#2ca02c;stroke-linecap:square;stroke-width:1.5;"/>
   </g>
   <g id="line2d_65"/>
   <g id="text_52">
    <!-- molecular_weight -->
    <defs>
     <path d="M 4.203125 54.6875 
L 13.1875 54.6875 
L 24.421875 12.015625 
L 35.59375 54.6875 
L 46.1875 54.6875 
L 57.421875 12.015625 
L 68.609375 54.6875 
L 77.59375 54.6875 
L 63.28125 0 
L 52.6875 0 
L 40.921875 44.828125 
L 29.109375 0 
L 18.5 0 
z
" id="DejaVuSans-77"/>
    </defs>
    <g transform="translate(883.643544 113.975781)scale(0.1 -0.1)">
     <use xlink:href="#DejaVuSans-6d"/>
     <use x="97.412109" xlink:href="#DejaVuSans-6f"/>
     <use x="158.59375" xlink:href="#DejaVuSans-6c"/>
     <use x="186.376953" xlink:href="#DejaVuSans-65"/>
     <use x="247.900391" xlink:href="#DejaVuSans-63"/>
     <use x="302.880859" xlink:href="#DejaVuSans-75"/>
     <use x="366.259766" xlink:href="#DejaVuSans-6c"/>
     <use x="394.042969" xlink:href="#DejaVuSans-61"/>
     <use x="455.322266" xlink:href="#DejaVuSans-72"/>
     <use x="496.435547" xlink:href="#DejaVuSans-5f"/>
     <use x="546.435547" xlink:href="#DejaVuSans-77"/>
     <use x="628.222656" xlink:href="#DejaVuSans-65"/>
     <use x="689.746094" xlink:href="#DejaVuSans-69"/>
     <use x="717.529297" xlink:href="#DejaVuSans-67"/>
     <use x="781.005859" xlink:href="#DejaVuSans-68"/>
     <use x="844.384766" xlink:href="#DejaVuSans-74"/>
    </g>
   </g>
   <g id="line2d_66">
    <path d="M 855.643544 125.432031 
L 875.643544 125.432031 
" style="fill:none;opacity:0.8;stroke:#d62728;stroke-linecap:square;stroke-width:1.5;"/>
   </g>
   <g id="line2d_67"/>
   <g id="text_53">
    <!-- side_chain_charge -->
    <g transform="translate(883.643544 128.932031)scale(0.1 -0.1)">
     <use xlink:href="#DejaVuSans-73"/>
     <use x="52.099609" xlink:href="#DejaVuSans-69"/>
     <use x="79.882812" xlink:href="#DejaVuSans-64"/>
     <use x="143.359375" xlink:href="#DejaVuSans-65"/>
     <use x="204.882812" xlink:href="#DejaVuSans-5f"/>
     <use x="254.882812" xlink:href="#DejaVuSans-63"/>
     <use x="309.863281" xlink:href="#DejaVuSans-68"/>
     <use x="373.242188" xlink:href="#DejaVuSans-61"/>
     <use x="434.521484" xlink:href="#DejaVuSans-69"/>
     <use x="462.304688" xlink:href="#DejaVuSans-6e"/>
     <use x="525.683594" xlink:href="#DejaVuSans-5f"/>
     <use x="575.683594" xlink:href="#DejaVuSans-63"/>
     <use x="630.664062" xlink:href="#DejaVuSans-68"/>
     <use x="694.042969" xlink:href="#DejaVuSans-61"/>
     <use x="755.322266" xlink:href="#DejaVuSans-72"/>
     <use x="796.419922" xlink:href="#DejaVuSans-67"/>
     <use x="859.896484" xlink:href="#DejaVuSans-65"/>
    </g>
   </g>
   <g id="line2d_68">
    <path d="M 855.643544 140.388281 
L 875.643544 140.388281 
" style="fill:none;opacity:0.8;stroke:#9467bd;stroke-linecap:square;stroke-width:1.5;"/>
   </g>
   <g id="line2d_69"/>
   <g id="text_54">
    <!-- side_chain_class -->
    <g transform="translate(883.643544 143.888281)scale(0.1 -0.1)">
     <use xlink:href="#DejaVuSans-73"/>
     <use x="52.099609" xlink:href="#DejaVuSans-69"/>
     <use x="79.882812" xlink:href="#DejaVuSans-64"/>
     <use x="143.359375" xlink:href="#DejaVuSans-65"/>
     <use x="204.882812" xlink:href="#DejaVuSans-5f"/>
     <use x="254.882812" xlink:href="#DejaVuSans-63"/>
     <use x="309.863281" xlink:href="#DejaVuSans-68"/>
     <use x="373.242188" xlink:href="#DejaVuSans-61"/>
     <use x="434.521484" xlink:href="#DejaVuSans-69"/>
     <use x="462.304688" xlink:href="#DejaVuSans-6e"/>
     <use x="525.683594" xlink:href="#DejaVuSans-5f"/>
     <use x="575.683594" xlink:href="#DejaVuSans-63"/>
     <use x="630.664062" xlink:href="#DejaVuSans-6c"/>
     <use x="658.447266" xlink:href="#DejaVuSans-61"/>
     <use x="719.726562" xlink:href="#DejaVuSans-73"/>
     <use x="771.826172" xlink:href="#DejaVuSans-73"/>
    </g>
   </g>
  </g>
 </g>
 <defs>
  <clipPath id="pe2c50c8111">
   <rect height="149.4" width="169.90716" x="34.240625" y="20.798438"/>
  </clipPath>
  <clipPath id="p61d3b0d0b6">
   <rect height="149.4" width="169.90716" x="247.618065" y="20.798438"/>
  </clipPath>
  <clipPath id="p7cda89e4f2">
   <rect height="149.4" width="169.90716" x="460.995506" y="20.798438"/>
  </clipPath>
  <clipPath id="p6bd03efbd6">
   <rect height="149.4" width="169.90716" x="674.372946" y="20.798438"/>
  </clipPath>
 </defs>
</svg>
